<?xml version="1.0" encoding="UTF-8"?>
<svg id="Capa_1" xmlns="http://www.w3.org/2000/svg" version="1.1" viewBox="0 0 512 512">
  <!-- Generator: Adobe Illustrator 29.0.0, SVG Export Plug-In . SVG Version: 2.1.0 Build 186)  -->
  <defs>
    <style>
      .st0 {
        fill: #ff9100;
        stroke: #fff;
        stroke-miterlimit: 10;
        stroke-width: 9px;
      }

      .st1 {
        fill: #041e7c;
      }

      .st2 {
        fill: #fff;
      }
    </style>
  </defs>
  <circle class="st1" cx="237.44" cy="256" r="219.44"/>
  <path class="st2" d="M239.29,408.75c-20.6,0-39.86-3.87-57.78-11.63-17.93-7.75-33.56-18.56-46.91-32.42-13.35-13.86-23.78-30.07-31.27-48.63-7.5-18.56-11.25-38.65-11.25-60.26s3.75-41.25,11.25-59.69c7.5-18.43,17.92-34.58,31.27-48.44,13.35-13.86,28.92-24.73,46.72-32.61,17.79-7.88,37.12-11.82,57.97-11.82,19.58,0,36.42,2.55,50.54,7.63,14.11,5.09,28.28,13.48,42.53,25.17,2.03,1.53,3.62,3.12,4.77,4.77,1.15,1.66,1.91,3.31,2.29,4.96.38,1.66.57,3.62.57,5.91,0,4.83-1.72,8.9-5.15,12.21-3.43,3.31-7.63,5.09-12.59,5.34-4.96.26-9.6-1.4-13.92-4.96-9.41-8.14-19.14-14.36-29.18-18.69-10.05-4.32-23.33-6.48-39.86-6.48-15.01,0-29.12,3.05-42.34,9.15-13.22,6.1-24.86,14.49-34.9,25.17-10.05,10.68-17.87,23.07-23.46,37.19-5.6,14.11-8.39,29.18-8.39,45.2s2.79,31.47,8.39,45.58c5.59,14.11,13.41,26.51,23.46,37.19,10.04,10.68,21.67,19.01,34.9,24.98,13.22,5.98,27.33,8.96,42.34,8.96,12.97,0,25.23-2.22,36.81-6.67,11.57-4.45,22.69-10.61,33.37-18.5,4.58-3.3,9.09-4.77,13.54-4.39,4.45.38,8.2,2.16,11.25,5.34,3.05,3.18,4.58,7.57,4.58,13.16,0,2.54-.45,5.02-1.33,7.44-.89,2.42-2.48,4.64-4.77,6.67-13.48,11.19-28.1,19.52-43.86,24.98-15.77,5.47-32.29,8.2-49.58,8.2ZM338.84,361.46l-38.14-7.63v-68.27h-52.63c-5.6,0-10.3-1.65-14.11-4.96-3.81-3.3-5.72-7.5-5.72-12.59s1.91-9.28,5.72-12.59c3.81-3.3,8.52-4.96,14.11-4.96h71.32c5.85,0,10.55,1.85,14.11,5.53,3.56,3.69,5.34,8.46,5.34,14.3v91.16Z"/>
  <circle class="st0" cx="436.77" cy="167.06" r="57.23"/>
</svg>